<svg xmlns="http://www.w3.org/2000/svg" version="1.1" xmlns:xlink="http://www.w3.org/1999/xlink" xmlns:svgjs="http://svgjs.dev/svgjs" width="1000" height="1000" viewBox="0 0 1000 1000"><rect width="1000" height="1000" fill="#ffffff"></rect><g transform="matrix(0.7,0,0,0.7,149.65000000000003,149.65000000000003)"><svg viewBox="0 0 280 280" data-background-color="#ffffff" preserveAspectRatio="xMidYMid meet" height="1000" width="1000" xmlns="http://www.w3.org/2000/svg" xmlns:xlink="http://www.w3.org/1999/xlink"><g id="tight-bounds" transform="matrix(1,0,0,1,0.13999999999998636,0.13999999999998636)"><svg viewBox="0 0 279.72 279.72" height="279.72" width="279.72"><g><svg viewBox="0 0 279.72 279.72" height="279.72" width="279.72"><g><svg viewBox="0 0 279.72 279.72" height="279.72" width="279.72"><g id="textblocktransform"><svg viewBox="0 0 279.72 279.72" height="279.72" width="279.72" id="textblock"><g><svg viewBox="0 0 279.72 279.72" height="279.72" width="279.72"><g transform="matrix(1,0,0,1,90.41202279162474,108.47589347451431)"><svg viewBox="0 0 98.89595441675056 62.76821305097141" height="62.76821305097141" width="98.89595441675056"><g><svg xmlns="http://www.w3.org/2000/svg" xmlns:xlink="http://www.w3.org/1999/xlink" version="1.1" x="0" y="0" viewBox="1.4902701278571835 21.999 95.492041129187 60.60778540050896" enable-background="new 0 0 100 100" xml:space="preserve" height="62.76821305097141" width="98.89595441675056" class="icon-kg-0" data-fill-palette-color="accent" id="kg-0"><path fill="#77d4fc" d="M95.101 33.76c0 0-1.878-2.459-4.65-3.22 0 0-0.355-1.162 0.315-1.743 0.67-0.581 2.459-3.825-2.057-5.624 0 0-5.902-0.681-3.667 4.236 0 0 0.627 1.387-0.178 1.789-0.805 0.402-3.444 0.716-5.769 3.533-2.325 2.817-1.968 3.891-1.968 3.891s-2.057-3.398-5.991-3.398l-0.226-1.118c0 0 2.013 0.582 2.327-1.744 0.312-2.325-1.209-1.744-1.209-1.744s1.565-3.98-3.531-3.98c0 0-3.399 0.537-2.817 4.115 0.581 3.577 1.476 3.532 1.476 3.532l0.224 0.894c0 0-1.521-0.045-1.834 0.224 0 0-1.296-2.236-4.918-3.265 0 0 3.442-5.813-2.416-7.467 0 0-3.845-0.045-3.89 2.281-0.045 2.325 1.208 5.231 1.208 5.231s-3.399 0.806-4.204 2.326S50.7 35.191 50.7 35.191l-1.47-0.179c0 0 2.23-2.996 1.022-5.947-1.207-2.952-4.203-3.354-6.484-2.146 0 0-3.979 1.654-2.772 4.739 0 0 0.358 1.341 0.828 2.102 0 0-1.588 0.089-1.946 0.582 0 0-1.655-4.248-5.947-5.099 0 0 4.203-6.215-2.594-7.244 0 0-4.114 0.493-4.025 2.773 0 0 0.134 2.504 0.805 3.755l0.089 0.805c0 0-1.967-0.581-3.845 1.207l-0.447 1.834c0 0-1.699-1.968-4.695-1.834 0 0 0.491-2.683 0.491-3.085s0.671-0.582 0.671-0.582-0.984-4.472-5.612-3.645c0 0-1.621-0.347-2.605 0.682-0.983 1.029-0.833 3.583-0.833 4.298 0 0.716 1.344 1.21 1.75 1.121 0.405-0.089 0.768 0.538 0.768 0.538l0.181 0.313c0 0-3.89 0.269-4.829 1.879-0.939 1.61-1.788 5.858-2.236 6.574-0.447 0.715-5.053 8.854-5.053 8.854s0.313 1.161 0.761 1.341c0 0-0.76 1.117-1.028 1.43s-0.134 1.924 0 2.147 0.715 0 0.715 0-0.268-1.028 0.402-1.655c0.671-0.625 0.358-0.312 0.358-0.312l0.134 0.805 0.402 0.313c0 0 0-0.851 0.178-1.298 0.179-0.446 0.134-0.893 0.134-0.893L5 49.771c0 0 3.309-5.949 3.622-6.665 0.313-0.715 1.564-4.785 2.013-4.694 0.446 0.089 0.268 1.118 0.268 1.118s0.224 3.667-1.251 5.724c-1.476 2.057-3.042 6.35-3.042 6.886 0 0 0.716 0.973 3.935 2.135L10.634 59h-0.313c0 0-0.787 1.13-0.563 2.829L10 62.291v8.494l0.184 1.833c0 0-1.117 1.03-1.072 1.656 0.045 0.624 0.829 1.653 1.365 2.057 0.537 0.401 2.649 0.626 2.917 0.356 0 0 0.633-2.146 0.409-3.532l-0.58-0.49c0 0 0.777-8.229 1-9.615L15 62.513v-2.996l-0.348-0.179c0 0 0.875-4.204 1.099-4.381 0.223-0.18 0.393 0.313 0.393 0.313s-0.386 8.139 0.016 8.766c0.403 0.623 0.771 1.071 0.771 1.071l0.316-0.135 1.075 8.229c0 0 0.091 3.936-0.221 4.336-0.313 0.403-0.289 0.717 0.235 0.984 0.525 0.269 3.388 0.269 3.521 0 0.134-0.268 0.536-1.341 0.357-1.967-0.179-0.627-0.536-3.89-1.789-4.069 0 0 0.805-7.379 0.895-7.691l0.67-0.313c0 0-0.313-2.279-0.402-2.504-0.089-0.223 0.358-6.663 0.358-6.663l2.057-0.717c0 0-0.895-2.1-0.895-3.083 0-0.984-0.268-6.842-2.325-9.794l0.067-1.788 1.811-1.141c0 0 2.08 2.549 3.958 2.951 0 0-1.542 8.249-1.408 10.53 0.134 2.282 1.408 8.184 1.408 8.184s0.872 1.341 0.804 1.946c-0.066 0.603-0.469 3.555 2.282 6.438 0 0-1.41 3.557-1.812 4.092-0.402 0.536-2.08 3.02-1.476 4.025 0 0 0.336 0.604 2.348 0.67 0 0-0.67 0.94 0.336 1.811 1.006 0.874 3.798 0.521 3.798 0.521s0.226-1.794 1.367-2.397 1.878-1.072 1.476-2.012c-0.403-0.939-1.274-2.013-1.274-2.013s-1.745-2.951-1.61-5.501c0.134-2.549 0.604-6.171 0.671-8.585l2.682-0.603c0 0 2.952-0.201 3.019-1.274 0.067-1.075-0.201-9.191-2.347-14.422 0 0 2.615-0.738 2.884-1.14 0 0 1.139 4.494 0.335 7.245 0 0-0.939 2.078-0.738 4.491 0.201 2.417 2.46 11.873 2.46 11.873l0.691-0.067c0 0 1.074 6.71 1.946 8.05 0 0-0.067 0.939-0.939 1.811-0.872 0.874-0.67 1.945-0.67 1.945s0.134 1.007 0.134 1.342c0 0.337 0.336 2.146 3.153 2.08 0 0 2.012-2.415 2.28-2.749 0.269-0.337 0.202-1.678 0-1.88-0.2-0.2-0.804-1.006-0.804-1.006s-0.537-0.604-0.469-1.878c0.067-1.273 0.804-3.756 0.872-8.317 0 0 4.025-1.542 6.169-2.684 0 0 1.208 6.037 1.276 6.641 0.065 0.604 1.341 0.469 1.341 0.469s2.214 5.836 2.482 7.112c0.268 1.273 0 2.013 0 2.013s-2.013 0.066-2.013 1.273c0 1.208 2.079 2.616 5.634 1.811 0 0 1.408-0.671 0.872-3.151-0.536-2.482-1.609-9.458-0.872-10.801l1.343 0.269 0.603-2.482 0.806-0.134c0 0-0.27 5.971 2.549 10.061l0.508 2.244c0 0-0.912-0.7-1.85 0.037-0.939 0.738-1.477 3.823 3.086 3.689 0 0 2.146 0 2.348-0.671 0.201-0.67-0.47-1.544-0.47-1.544l-0.068-0.469c0 0 1.175-0.065 1.493-0.132 0.317-0.067 0.453-1.611 0.453-1.611l-0.605-2.146c0 0-0.602-0.873-0.468-2.079 0.133-1.21 1.207-3.957-0.2-8.452 0 0-0.874-1.476 0-2.952 0.869-1.477 1.676-3.688 2.815-5.633 0 0 0.134 0.536 1.142 0.737 0 0-0.672-2.684 0-2.55 0 0-0.023 0.604 0.515 0.739 0 0-0.135-0.579 0-1.498 0.134-0.918 0-3.02 0-3.02l1.832-3.711c0 0-1.162 6.484-0.849 6.975l0.849 0.091c0 0-1.291 10.418 0.721 13.37C81.47 69.713 83 74.14 83 75.078c0 0.94 0 7.514 0 7.514s3.435 0.268 4.104-1.478c0.674-1.744 0.38-1.878 1.183-2.95 0.805-1.073 2.335-2.146 2.335-2.146s-2.253-2.416-2.118-5.233c0.134-2.816 1.623-12.476 3.5-14.757 1.878-2.281 0.796-5.231 0.796-5.231l1.2-0.268v6.037c0 0-0.588 2.549 0.483 3.486 1.074 0.94 1.384-0.938 1.384-0.938s-0.718-2.549-0.046-3.087c0.67-0.536 0.916-1.609 0.916-1.609S97.917 41.81 95.101 33.76zM53.07 50.572l-0.18 0.941-2.258-6.156L53.249 43h0.536l0.581 0.611L53.07 50.572zM77.039 43.464c-0.449 0.358-1.699 3.734-1.699 3.734l-0.404-0.202c0 0-1.073-2.057-0.984-3.174 0.091-1.117 0.762-3.175 0.762-3.175s0.268-0.85 0.581-0.582c0.313 0.269 1.745 2.102 1.745 2.102S77.486 43.106 77.039 43.464z" data-fill-palette-color="accent"></path></svg></g></svg></g><g><path d="M3.629 103.439l6.301-18.157 3.263 1.78-2.242 6.46 22.573 7.834-1.575 4.537-22.573-7.834-2.284 6.582z" fill="#010c80" data-fill-palette-color="primary"></path><path d="M46.706 75.407l-13.65-26.176 2.538-2.873 27.688 10.282-3.421 3.873-7.074-2.872-6.574 7.443 3.679 6.716zM44.388 61.732l4.88-5.525c-2.403-0.962-4.559-1.869-6.469-2.722-1.91-0.852-3.399-1.535-4.468-2.047v0c0.661 1.093 1.527 2.531 2.599 4.313 1.076 1.777 2.229 3.77 3.458 5.981z" fill="#010c80" data-fill-palette-color="primary"></path><path d="M84.977 41.283l-12.348-24.638 4.338-2.174 10.705 21.361 9.205-4.613 1.643 3.277z" fill="#010c80" data-fill-palette-color="primary"></path><path d="M122.391 28.188l9.317-28.013 3.83-0.175 11.867 27.047-5.163 0.235-2.855-7.081-9.92 0.453-2.268 7.314zM130.606 17.011l7.364-0.336c-0.98-2.395-1.828-4.576-2.544-6.541-0.716-1.965-1.261-3.51-1.636-4.634v0c-0.326 1.235-0.757 2.857-1.291 4.867-0.528 2.009-1.159 4.224-1.893 6.644z" fill="#010c80" data-fill-palette-color="primary"></path><path d="M170.993 30.986l20.129-21.596 3.555 1.435-0.464 29.532-4.792-1.934 0.35-7.627-9.209-3.717-5.106 5.708zM183.114 24.241l6.836 2.759c0.106-2.586 0.242-4.921 0.409-7.007 0.167-2.085 0.314-3.717 0.44-4.894v0c-0.81 0.987-1.877 2.283-3.199 3.888-1.316 1.607-2.812 3.358-4.486 5.254z" fill="#010c80" data-fill-palette-color="primary"></path><path d="M241.08 41.301v0c0.676 0.666 1.261 1.367 1.756 2.103 0.495 0.737 0.917 1.439 1.267 2.108 0.35 0.668 0.618 1.265 0.803 1.789 0.186 0.525 0.3 0.901 0.344 1.13v0l-3.883 1.099-0.172-0.572c-0.119-0.386-0.295-0.864-0.528-1.435-0.237-0.576-0.531-1.17-0.881-1.782-0.349-0.612-0.747-1.138-1.193-1.577v0c-0.695-0.684-1.46-1.114-2.294-1.289-0.835-0.175-1.595 0.084-2.279 0.779v0c-0.86 0.873-1.281 1.859-1.263 2.958 0.018 1.109 0.396 2.484 1.136 4.128v0c0.474 1.068 0.847 2.073 1.12 3.017 0.273 0.934 0.405 1.832 0.398 2.694-0.012 0.867-0.194 1.699-0.547 2.499-0.348 0.795-0.922 1.598-1.721 2.41v0c-0.726 0.737-1.578 1.326-2.558 1.766-0.989 0.441-2.028 0.665-3.118 0.674-1.099 0.008-2.221-0.218-3.366-0.68-1.145-0.462-2.248-1.215-3.309-2.259v0c-0.756-0.744-1.395-1.526-1.919-2.347-0.523-0.82-0.963-1.604-1.317-2.352-0.346-0.747-0.614-1.423-0.805-2.027-0.186-0.599-0.318-1.053-0.395-1.359v0l3.846-1.469 0.236 0.801c0.158 0.534 0.372 1.166 0.644 1.896 0.276 0.725 0.601 1.46 0.974 2.208 0.364 0.747 0.751 1.322 1.159 1.724v0c1.023 1.008 2.036 1.505 3.037 1.492 0.997-0.008 1.941-0.464 2.834-1.37v0c0.421-0.427 0.72-0.867 0.898-1.321 0.178-0.453 0.256-0.917 0.234-1.392-0.022-0.484-0.122-0.994-0.299-1.528-0.176-0.534-0.402-1.108-0.677-1.72v0c-0.508-1.221-0.922-2.355-1.242-3.401-0.329-1.046-0.503-2.043-0.519-2.993-0.017-0.95 0.149-1.85 0.497-2.701 0.347-0.86 0.942-1.717 1.782-2.572v0c0.703-0.713 1.518-1.232 2.448-1.556 0.929-0.324 1.897-0.457 2.904-0.399 1.011 0.062 2.029 0.324 3.052 0.787 1.033 0.463 2.005 1.142 2.916 2.039z" fill="#010c80" data-fill-palette-color="primary"></path><path d="M248.763 105.705l11.596-4.772-4.322-10.5-11.595 4.773-1.847-4.487 25.485-10.489 1.847 4.487-10.618 4.37 4.321 10.499 10.618-4.37 1.843 4.477-25.485 10.49z" fill="#010c80" data-fill-palette-color="primary"></path><path d="M31.397 170.85l4.007 12.527-2.507 0.366-1.427-4.461-15.586 4.986-1.003-3.134 15.586-4.986-1.451-4.536z" fill="#010c80" data-fill-palette-color="primary"></path><path d="M38.891 187.815l-7.386 3.356c0.865 0.2 1.597 0.577 2.195 1.13 0.599 0.553 1.071 1.21 1.417 1.972v0c0.591 1.302 0.626 2.422 0.105 3.36-0.519 0.945-1.447 1.721-2.784 2.329v0l-8.475 3.85-1.316-2.897 8.268-3.756c0.714-0.324 1.22-0.706 1.519-1.147 0.299-0.44 0.31-0.966 0.033-1.577v0c-0.161-0.354-0.417-0.671-0.77-0.953-0.349-0.275-0.766-0.484-1.25-0.626-0.481-0.136-1.001-0.189-1.56-0.16-0.558 0.029-1.122 0.173-1.692 0.433v0l-6.702 3.045-1.316-2.897 17.885-8.126z" fill="#010c80" data-fill-palette-color="primary"></path><path d="M32.157 204.755c1.055-0.66 2.076-1.097 3.062-1.31 0.986-0.213 1.91-0.232 2.774-0.057 0.865 0.166 1.651 0.509 2.358 1.03 0.71 0.527 1.316 1.19 1.816 1.989v0c0.444 0.709 0.735 1.367 0.872 1.971 0.138 0.605 0.157 1.157 0.056 1.655-0.102 0.507-0.31 0.963-0.623 1.37-0.317 0.4-0.713 0.749-1.187 1.046v0c-0.57 0.356-1.206 0.537-1.91 0.542-0.709 0.009-1.442-0.162-2.198-0.513-0.756-0.351-1.508-0.871-2.258-1.559-0.753-0.694-1.463-1.556-2.13-2.584v0c-0.335 0.272-0.629 0.56-0.881 0.865-0.261 0.303-0.453 0.629-0.576 0.979-0.12 0.355-0.152 0.732-0.096 1.132 0.056 0.4 0.233 0.837 0.53 1.312v0c0.217 0.346 0.488 0.693 0.814 1.041 0.323 0.342 0.64 0.645 0.953 0.908v0c0.377 0.316 0.762 0.615 1.156 0.897v0l-1.235 1.752c-0.462-0.278-0.919-0.606-1.373-0.983v0c-0.395-0.32-0.816-0.714-1.263-1.18-0.447-0.466-0.858-0.998-1.231-1.596v0c-0.573-0.916-0.921-1.782-1.044-2.599-0.132-0.819-0.074-1.59 0.174-2.312 0.244-0.728 0.663-1.406 1.257-2.033 0.59-0.634 1.318-1.221 2.184-1.763zM40.193 207.35c-0.325-0.519-0.714-0.874-1.168-1.064-0.455-0.181-0.94-0.255-1.455-0.221-0.515 0.034-1.038 0.16-1.571 0.377-0.536 0.211-1.053 0.465-1.552 0.762v0c0.505 0.733 1.006 1.309 1.502 1.729 0.494 0.429 0.967 0.732 1.419 0.907 0.452 0.176 0.865 0.252 1.238 0.228 0.379-0.027 0.711-0.13 0.996-0.308v0c0.458-0.287 0.74-0.649 0.846-1.089 0.106-0.439 0.021-0.88-0.255-1.321z" fill="#010c80" data-fill-palette-color="primary"></path><path d="M39.757 235.38l-2.578-1.929 9.594-9.039c0.81-0.763 1.437-1.458 1.879-2.084 0.447-0.62 0.782-1.153 1.005-1.598v0c0.253-0.519 0.418-0.978 0.496-1.377v0l2.448 1.129c-0.009 0.317-0.073 0.657-0.192 1.021v0c-0.097 0.3-0.24 0.643-0.429 1.029-0.188 0.377-0.454 0.776-0.797 1.2v0c1.027-0.533 1.989-0.747 2.885-0.641 0.887 0.106 1.751 0.604 2.591 1.496v0c0.601 0.638 1.003 1.3 1.206 1.986 0.198 0.691 0.224 1.395 0.077 2.113-0.156 0.718-0.476 1.444-0.96 2.181-0.478 0.731-1.096 1.454-1.854 2.167v0c-0.772 0.727-1.595 1.285-2.468 1.675-0.874 0.389-1.744 0.594-2.612 0.614-0.877 0.021-1.732-0.138-2.565-0.475-0.829-0.342-1.589-0.879-2.28-1.612v0c-0.239-0.254-0.469-0.527-0.689-0.818-0.225-0.286-0.451-0.58-0.68-0.88v0zM54.674 225.737c-0.321-0.34-0.727-0.546-1.219-0.616-0.497-0.066-1.034-0.026-1.611 0.119-0.578 0.146-1.158 0.385-1.741 0.718-0.583 0.332-1.124 0.733-1.623 1.203v0l-2.919 2.751c0.083 0.175 0.227 0.424 0.432 0.747 0.2 0.318 0.398 0.58 0.591 0.786v0c0.483 0.513 0.97 0.856 1.459 1.029 0.498 0.173 0.998 0.214 1.499 0.122 0.501-0.092 1.006-0.301 1.515-0.626 0.508-0.325 1.019-0.729 1.532-1.213v0c0.475-0.447 0.916-0.886 1.325-1.317 0.409-0.44 0.727-0.875 0.955-1.306 0.232-0.436 0.345-0.854 0.338-1.256-0.012-0.396-0.189-0.777-0.533-1.141z" fill="#010c80" data-fill-palette-color="primary"></path><path d="M57.407 235.813c0.792-0.961 1.621-1.699 2.489-2.213 0.868-0.514 1.738-0.825 2.612-0.933 0.873-0.117 1.728-0.041 2.564 0.229 0.841 0.274 1.625 0.711 2.351 1.311v0c0.646 0.532 1.13 1.063 1.453 1.593 0.323 0.53 0.515 1.048 0.578 1.552 0.064 0.513 0.011 1.012-0.157 1.496-0.174 0.48-0.438 0.936-0.795 1.368v0c-0.427 0.519-0.974 0.892-1.639 1.121-0.67 0.233-1.419 0.303-2.247 0.21-0.828-0.093-1.707-0.348-2.636-0.764-0.934-0.42-1.881-1.012-2.839-1.775v0c-0.232 0.364-0.418 0.731-0.561 1.1-0.151 0.37-0.23 0.741-0.237 1.111-0.001 0.375 0.088 0.743 0.268 1.104 0.18 0.362 0.486 0.721 0.919 1.077v0c0.315 0.26 0.683 0.503 1.102 0.729 0.415 0.222 0.812 0.408 1.191 0.558v0c0.457 0.18 0.918 0.342 1.381 0.485v0l-0.616 2.053c-0.526-0.118-1.064-0.283-1.614-0.497v0c-0.476-0.179-1-0.418-1.571-0.719-0.572-0.3-1.13-0.675-1.674-1.123v0c-0.834-0.687-1.438-1.398-1.814-2.134-0.385-0.735-0.574-1.484-0.568-2.247 0.001-0.768 0.183-1.543 0.547-2.328 0.359-0.788 0.863-1.576 1.513-2.364zM65.85 235.727c-0.473-0.39-0.954-0.603-1.444-0.639-0.489-0.028-0.973 0.057-1.45 0.252-0.477 0.196-0.934 0.481-1.37 0.855-0.442 0.37-0.852 0.775-1.231 1.214v0c0.712 0.535 1.369 0.923 1.973 1.165 0.605 0.25 1.149 0.387 1.633 0.411 0.484 0.023 0.9-0.035 1.246-0.177 0.351-0.146 0.633-0.349 0.847-0.608v0c0.343-0.417 0.496-0.85 0.457-1.301-0.039-0.45-0.259-0.841-0.661-1.172z" fill="#010c80" data-fill-palette-color="primary"></path><path d="M78.468 241.949c1.802 1.145 2.774 2.508 2.917 4.089 0.134 1.583-0.393 3.309-1.581 5.178v0c-0.558 0.879-1.188 1.63-1.888 2.253-0.703 0.615-1.453 1.059-2.252 1.333-0.802 0.279-1.642 0.361-2.522 0.247-0.878-0.105-1.764-0.442-2.659-1.011v0c-0.89-0.565-1.573-1.191-2.051-1.876-0.474-0.691-0.761-1.432-0.86-2.221-0.094-0.786-0.005-1.607 0.267-2.465 0.275-0.863 0.706-1.756 1.292-2.679v0c0.569-0.895 1.204-1.655 1.905-2.279 0.706-0.62 1.459-1.067 2.256-1.34 0.798-0.273 1.639-0.356 2.522-0.248 0.874 0.111 1.759 0.45 2.654 1.019zM76.979 243.778c-0.456-0.29-0.892-0.426-1.308-0.41-0.425 0.018-0.835 0.16-1.23 0.424-0.4 0.261-0.788 0.619-1.163 1.076-0.376 0.456-0.744 0.968-1.104 1.534v0c-0.367 0.578-0.682 1.147-0.944 1.707-0.256 0.563-0.412 1.096-0.467 1.6-0.055 0.504 0.009 0.969 0.19 1.397 0.179 0.418 0.522 0.788 1.028 1.11v0c0.45 0.286 0.886 0.423 1.308 0.409 0.42-0.022 0.827-0.165 1.221-0.429 0.404-0.267 0.79-0.622 1.158-1.068 0.374-0.441 0.741-0.946 1.102-1.512v0c0.367-0.578 0.679-1.149 0.936-1.712 0.256-0.563 0.415-1.102 0.477-1.617 0.062-0.515 0.003-0.981-0.176-1.4-0.185-0.422-0.527-0.792-1.028-1.109z" fill="#010c80" data-fill-palette-color="primary"></path><path d="M81.463 266.112l-3.111-0.832 5.544-11.96c0.468-1.01 0.792-1.888 0.97-2.632 0.184-0.742 0.297-1.362 0.339-1.858v0c0.042-0.576 0.025-1.063-0.052-1.462v0l2.692 0.137c0.109 0.297 0.177 0.637 0.202 1.019v0c0.021 0.315 0.016 0.686-0.015 1.115-0.035 0.42-0.133 0.89-0.295 1.41v0c0.755-0.877 1.568-1.433 2.44-1.668 0.863-0.232 1.85-0.09 2.961 0.425v0c0.795 0.368 1.414 0.834 1.859 1.396 0.441 0.568 0.727 1.212 0.857 1.933 0.122 0.724 0.095 1.518-0.08 2.381-0.172 0.857-0.477 1.757-0.915 2.701v0c-0.446 0.962-1.002 1.786-1.668 2.472-0.666 0.686-1.398 1.2-2.196 1.542-0.806 0.345-1.659 0.516-2.558 0.513-0.896-0.009-1.802-0.225-2.716-0.649v0c-0.317-0.147-0.631-0.314-0.944-0.502-0.315-0.182-0.634-0.37-0.958-0.565v0zM91.724 251.612c-0.424-0.197-0.878-0.236-1.361-0.119-0.486 0.123-0.969 0.36-1.451 0.711-0.482 0.35-0.932 0.788-1.349 1.313-0.418 0.525-0.771 1.099-1.059 1.72v0l-1.687 3.64c0.142 0.131 0.369 0.309 0.678 0.532 0.304 0.221 0.585 0.391 0.842 0.51v0c0.639 0.296 1.218 0.434 1.737 0.413 0.527-0.024 1.006-0.173 1.437-0.444 0.431-0.272 0.822-0.654 1.173-1.145 0.351-0.491 0.675-1.056 0.971-1.695v0c0.274-0.592 0.521-1.163 0.741-1.715 0.216-0.56 0.35-1.083 0.4-1.568 0.053-0.491 0.002-0.921-0.153-1.291-0.158-0.364-0.464-0.651-0.919-0.862z" fill="#010c80" data-fill-palette-color="primary"></path><path d="M99.403 267.54c-0.997-0.341-1.641-0.871-1.931-1.59-0.286-0.711-0.281-1.499 0.016-2.365v0l5.383-15.736 3.202 0.469-5.476 16.007c-0.139 0.405-0.158 0.715-0.057 0.93 0.109 0.211 0.31 0.367 0.603 0.468v0c0.181 0.062 0.355 0.111 0.523 0.147 0.175 0.039 0.339 0.067 0.494 0.086v0c0.169 0.016 0.322 0.026 0.459 0.031v0l-0.288 2.032c-0.254 0.011-0.533 0.002-0.837-0.025v0c-0.273-0.017-0.582-0.06-0.928-0.129-0.352-0.072-0.739-0.18-1.163-0.325z" fill="#010c80" data-fill-palette-color="primary"></path><path d="M106.86 262.771c0.288-1.211 0.708-2.239 1.262-3.083 0.553-0.844 1.198-1.506 1.935-1.987 0.733-0.489 1.534-0.797 2.403-0.922 0.876-0.124 1.772-0.076 2.688 0.141v0c0.814 0.194 1.482 0.457 2.006 0.792 0.523 0.334 0.924 0.714 1.202 1.139 0.283 0.433 0.455 0.904 0.517 1.413 0.055 0.507 0.018 1.034-0.111 1.578v0c-0.155 0.654-0.482 1.23-0.98 1.728-0.499 0.504-1.141 0.897-1.925 1.177-0.784 0.281-1.685 0.439-2.703 0.475-1.024 0.034-2.134-0.081-3.331-0.345v0c-0.048 0.429-0.054 0.84-0.019 1.234 0.027 0.399 0.119 0.766 0.276 1.102 0.164 0.337 0.406 0.628 0.727 0.874 0.321 0.246 0.754 0.433 1.298 0.562v0c0.397 0.094 0.834 0.151 1.311 0.17 0.47 0.017 0.908 0.009 1.315-0.023v0c0.49-0.039 0.974-0.097 1.453-0.172v0l0.351 2.115c-0.524 0.126-1.08 0.214-1.668 0.263v0c-0.506 0.049-1.082 0.064-1.727 0.047-0.646-0.018-1.311-0.109-1.998-0.272v0c-1.051-0.25-1.907-0.623-2.567-1.119-0.669-0.491-1.169-1.08-1.5-1.768-0.337-0.69-0.515-1.466-0.532-2.331-0.024-0.866 0.082-1.795 0.317-2.788zM114.405 258.978c-0.596-0.142-1.122-0.121-1.579 0.062-0.452 0.191-0.849 0.479-1.191 0.864-0.342 0.386-0.627 0.843-0.854 1.371-0.234 0.527-0.424 1.071-0.571 1.632v0c0.874 0.167 1.636 0.226 2.284 0.177 0.653-0.041 1.202-0.158 1.647-0.349 0.445-0.192 0.792-0.428 1.042-0.708 0.251-0.286 0.415-0.592 0.493-0.918v0c0.125-0.526 0.071-0.982-0.162-1.369-0.233-0.387-0.603-0.641-1.109-0.762z" fill="#010c80" data-fill-palette-color="primary"></path><path d="M140.074 255.028l-1.449 1.74c-0.05-0.055-0.216-0.165-0.499-0.331-0.282-0.159-0.552-0.244-0.808-0.257v0c-0.171-0.008-0.376 0.005-0.615 0.04-0.246 0.034-0.484 0.125-0.716 0.272-0.231 0.147-0.433 0.365-0.606 0.653-0.172 0.288-0.27 0.676-0.293 1.163v0c-0.01 0.204-0.005 0.435 0.016 0.693 0.014 0.258 0.059 0.547 0.136 0.868v0l3.454 0.167-0.504 2.241-2.892-0.14-0.529 10.906c-0.054 1.119-0.244 2.046-0.57 2.782-0.326 0.736-0.732 1.35-1.217 1.841-0.492 0.484-1.029 0.883-1.611 1.198-0.583 0.321-1.157 0.607-1.723 0.856v0l-1.181-2.174c0.702-0.322 1.259-0.674 1.674-1.057 0.407-0.376 0.716-0.76 0.926-1.152 0.217-0.392 0.354-0.771 0.411-1.138 0.051-0.367 0.083-0.698 0.098-0.994v0l0.544-11.222-2.507-0.122 0.109-2.26 2.428 0.118c-0.059-0.28-0.098-0.569-0.116-0.866-0.012-0.297-0.012-0.578 0.001-0.841v0c0.036-0.737 0.202-1.388 0.501-1.955 0.298-0.559 0.682-1.016 1.154-1.368 0.472-0.346 1.015-0.604 1.63-0.772 0.608-0.162 1.238-0.227 1.889-0.195v0c0.724 0.035 1.314 0.179 1.77 0.432 0.449 0.253 0.815 0.544 1.095 0.874z" fill="#010c80" data-fill-palette-color="primary"></path><path d="M145.264 273.97c-0.981 0.022-1.739-0.255-2.272-0.829-0.533-0.568-0.81-1.316-0.831-2.245v0l-0.241-10.847 3.181-0.071 0.235 10.561c0.01 0.428 0.079 0.716 0.207 0.865 0.135 0.142 0.334 0.21 0.598 0.204v0c0.072-0.002 0.151-0.003 0.237-0.005 0.079-0.002 0.155-0.01 0.226-0.025v0c0.079-0.002 0.164-0.014 0.257-0.035v0l0.38 1.998c-0.13 0.075-0.297 0.145-0.499 0.209v0c-0.163 0.056-0.373 0.107-0.629 0.152-0.25 0.038-0.532 0.061-0.849 0.068zM143.422 253.828c0.599-0.013 1.061 0.154 1.385 0.503 0.324 0.342 0.492 0.793 0.505 1.353v0c0.012 0.56-0.142 1.028-0.463 1.404-0.314 0.383-0.788 0.581-1.42 0.595v0c-0.593 0.013-1.058-0.158-1.395-0.513-0.331-0.355-0.502-0.793-0.514-1.313v0c-0.013-0.58 0.138-1.057 0.453-1.433 0.321-0.383 0.804-0.581 1.449-0.596z" fill="#010c80" data-fill-palette-color="primary"></path><path d="M163.426 271.941l-3.119 0.384-1.101-8.934c-0.095-0.771-0.312-1.375-0.652-1.811-0.333-0.437-0.829-0.615-1.489-0.534v0c-0.425 0.052-0.824 0.208-1.197 0.466-0.372 0.265-0.69 0.619-0.954 1.064-0.264 0.444-0.455 0.969-0.573 1.574-0.125 0.6-0.144 1.259-0.055 1.978v0l0.843 6.836-3.148 0.388-0.86-6.973c-0.136-1.105-0.325-2.021-0.568-2.748-0.236-0.728-0.467-1.313-0.694-1.756v0c-0.269-0.511-0.541-0.916-0.817-1.214v0l2.358-1.306c0.215 0.179 0.432 0.405 0.651 0.676v0c0.176 0.244 0.362 0.543 0.559 0.897 0.191 0.361 0.365 0.778 0.522 1.25v0c0.34-1.17 0.932-2.053 1.775-2.648 0.842-0.602 1.763-0.964 2.763-1.087v0c1.419-0.175 2.498 0.127 3.238 0.905 0.74 0.778 1.2 1.897 1.379 3.355v0z" fill="#010c80" data-fill-palette-color="primary"></path><path d="M181.246 266.641l-2.147 1.615c-0.037-0.011-0.139-0.075-0.307-0.194-0.168-0.119-0.365-0.295-0.591-0.528-0.224-0.227-0.459-0.522-0.706-0.886-0.255-0.368-0.47-0.816-0.644-1.342v0c-0.019 1.157-0.293 2.099-0.822 2.827-0.529 0.727-1.366 1.243-2.512 1.549v0c-0.847 0.226-1.62 0.265-2.32 0.117-0.702-0.154-1.337-0.465-1.906-0.934-0.57-0.475-1.064-1.101-1.481-1.876-0.418-0.775-0.761-1.665-1.029-2.671v0c-0.271-1.018-0.367-2.005-0.287-2.961 0.08-0.955 0.319-1.823 0.717-2.604 0.4-0.775 0.947-1.449 1.64-2.022 0.694-0.567 1.519-0.977 2.473-1.232v0c0.325-0.086 0.673-0.159 1.047-0.217 0.378-0.067 0.756-0.119 1.134-0.159v0l-1.623-6.092 3.21-0.272 3.327 12.489c0.288 1.082 0.59 1.96 0.906 2.633 0.316 0.673 0.611 1.207 0.887 1.604 0.278 0.403 0.513 0.685 0.706 0.845 0.186 0.162 0.296 0.266 0.328 0.311zM173.441 267.36c0.452-0.12 0.826-0.38 1.122-0.779 0.294-0.406 0.515-0.894 0.663-1.465 0.148-0.571 0.215-1.189 0.201-1.854-0.015-0.671-0.111-1.337-0.287-1.999v0l-1.033-3.877c-0.2-0.008-0.487 0-0.862 0.025-0.375 0.025-0.709 0.076-1.002 0.155v0c-0.681 0.181-1.211 0.445-1.589 0.791-0.376 0.353-0.643 0.771-0.8 1.257-0.164 0.487-0.22 1.03-0.169 1.63 0.044 0.602 0.157 1.243 0.338 1.924v0c0.168 0.63 0.344 1.228 0.529 1.792 0.191 0.563 0.422 1.047 0.693 1.451 0.27 0.399 0.583 0.69 0.939 0.875 0.354 0.178 0.773 0.203 1.257 0.074z" fill="#010c80" data-fill-palette-color="primary"></path><path d="M188.598 264.858c-0.918 0.347-1.724 0.338-2.418-0.027-0.692-0.359-1.201-0.972-1.53-1.841v0l-3.831-10.151 2.977-1.124 3.73 9.883c0.151 0.401 0.312 0.65 0.483 0.747 0.174 0.089 0.385 0.087 0.631-0.006v0c0.068-0.026 0.142-0.054 0.222-0.083 0.074-0.028 0.143-0.061 0.206-0.099v0c0.074-0.028 0.151-0.067 0.23-0.119v0l1.022 1.758c-0.098 0.114-0.232 0.235-0.401 0.363v0c-0.135 0.107-0.316 0.225-0.543 0.353-0.223 0.119-0.482 0.235-0.778 0.346zM180.169 246.472c0.561-0.212 1.052-0.207 1.474 0.015 0.419 0.215 0.728 0.584 0.925 1.108v0c0.198 0.524 0.208 1.017 0.03 1.478-0.169 0.465-0.55 0.81-1.142 1.033v0c-0.555 0.209-1.05 0.203-1.486-0.02-0.43-0.225-0.737-0.581-0.921-1.068v0c-0.205-0.542-0.221-1.043-0.049-1.502 0.176-0.468 0.565-0.815 1.169-1.044z" fill="#010c80" data-fill-palette-color="primary"></path><path d="M205.054 256.908l-2.814 1.399-4.008-8.06c-0.346-0.696-0.752-1.193-1.217-1.492-0.459-0.301-0.986-0.304-1.582-0.008v0c-0.383 0.191-0.708 0.47-0.974 0.837-0.263 0.374-0.445 0.814-0.546 1.32-0.101 0.506-0.107 1.065-0.017 1.675 0.081 0.607 0.283 1.235 0.606 1.884v0l3.066 6.167-2.84 1.412-3.128-6.29c-0.496-0.997-0.979-1.798-1.449-2.403-0.464-0.608-0.877-1.083-1.238-1.426v0c-0.423-0.393-0.815-0.684-1.174-0.873v0l1.79-2.016c0.262 0.098 0.542 0.238 0.839 0.422v0c0.247 0.171 0.522 0.391 0.825 0.66 0.3 0.278 0.603 0.613 0.908 1.005v0c-0.068-1.217 0.196-2.246 0.793-3.087 0.594-0.847 1.342-1.495 2.245-1.944v0c1.28-0.636 2.398-0.711 3.354-0.222 0.956 0.488 1.762 1.39 2.416 2.705v0z" fill="#010c80" data-fill-palette-color="primary"></path><path d="M213.994 257.023l-0.72-2.449c0.292-0.063 0.602-0.134 0.93-0.214 0.332-0.074 0.676-0.165 1.034-0.272 0.352-0.103 0.698-0.227 1.038-0.37 0.34-0.144 0.658-0.315 0.952-0.515v0c0.861-0.585 1.308-1.263 1.342-2.034 0.035-0.78-0.223-1.577-0.774-2.389v0c-0.544-0.801-1.261-1.493-2.15-2.076v0c0.268 0.957 0.26 1.83-0.024 2.62-0.284 0.79-0.886 1.498-1.807 2.123v0c-0.725 0.492-1.442 0.784-2.152 0.877-0.714 0.086-1.416 0.002-2.107-0.254-0.695-0.261-1.367-0.688-2.018-1.282-0.65-0.594-1.267-1.321-1.852-2.182v0c-0.592-0.872-1.008-1.772-1.248-2.7-0.24-0.928-0.301-1.826-0.182-2.695 0.122-0.863 0.416-1.68 0.881-2.45 0.469-0.764 1.112-1.424 1.929-1.978v0c0.365-0.248 0.775-0.494 1.23-0.74 0.458-0.24 0.911-0.464 1.359-0.672 0.457-0.207 0.891-0.394 1.303-0.562 0.417-0.172 0.778-0.314 1.084-0.426v0l4.18 6.419c0.304 0.471 0.618 0.875 0.942 1.211 0.334 0.339 0.674 0.665 1.022 0.978 0.348 0.313 0.692 0.637 1.031 0.973 0.335 0.33 0.66 0.726 0.975 1.189v0c1.107 1.63 1.516 3.123 1.227 4.482-0.29 1.367-1.141 2.53-2.552 3.489v0c-0.463 0.315-0.952 0.586-1.465 0.815-0.522 0.227-1.017 0.42-1.483 0.577-0.463 0.163-0.867 0.282-1.214 0.359-0.352 0.08-0.589 0.129-0.711 0.148zM212.994 249.306c0.371-0.252 0.631-0.607 0.78-1.068 0.15-0.46 0.208-0.977 0.176-1.552-0.029-0.57-0.152-1.163-0.372-1.779-0.214-0.619-0.509-1.207-0.886-1.763v0l-2.376-3.498c-0.191 0.058-0.46 0.161-0.806 0.308-0.346 0.147-0.644 0.306-0.895 0.476v0c-0.583 0.396-0.996 0.82-1.239 1.272-0.239 0.457-0.353 0.94-0.341 1.45 0.006 0.513 0.132 1.045 0.378 1.594 0.24 0.553 0.559 1.122 0.955 1.705v0c0.366 0.54 0.73 1.045 1.09 1.517 0.366 0.468 0.745 0.851 1.139 1.15 0.39 0.293 0.783 0.467 1.18 0.524 0.397 0.057 0.803-0.055 1.217-0.336z" fill="#010c80" data-fill-palette-color="primary"></path><path d="M228.783 222.264l-0.051 2.459c-0.419-0.027-0.808-0.015-1.167 0.038-0.363 0.047-0.715 0.241-1.053 0.582v0c-0.2 0.201-0.393 0.45-0.579 0.749-0.181 0.303-0.259 0.676-0.235 1.118 0.02 0.438 0.184 0.95 0.492 1.536 0.313 0.582 0.85 1.251 1.612 2.009v0c0.78 0.776 1.463 1.322 2.05 1.638 0.592 0.311 1.121 0.484 1.587 0.521 0.466 0.027 0.862-0.048 1.188-0.226 0.316-0.178 0.593-0.386 0.83-0.624v0c0.181-0.182 0.356-0.39 0.523-0.623 0.163-0.229 0.311-0.457 0.445-0.686 0.144-0.229 0.265-0.434 0.363-0.615 0.097-0.173 0.165-0.305 0.201-0.399v0l1.973 0.862c-0.023 0.051-0.072 0.179-0.146 0.385-0.069 0.2-0.19 0.452-0.362 0.755-0.172 0.303-0.39 0.648-0.655 1.036-0.269 0.392-0.606 0.791-1.01 1.197v0c-0.762 0.766-1.53 1.303-2.303 1.612-0.763 0.309-1.529 0.429-2.298 0.361-0.769-0.068-1.531-0.316-2.286-0.743-0.756-0.427-1.495-1.001-2.219-1.721v0c-0.873-0.869-1.529-1.751-1.969-2.644-0.444-0.898-0.691-1.78-0.739-2.647-0.048-0.857 0.085-1.682 0.4-2.474 0.315-0.783 0.789-1.492 1.421-2.127v0c0.614-0.616 1.251-1.023 1.912-1.22 0.661-0.188 1.353-0.224 2.075-0.109z" fill="#010c80" data-fill-palette-color="primary"></path><path d="M226.554 212.45l6.344 5.057c-0.215-0.862-0.211-1.685 0.009-2.47 0.221-0.784 0.592-1.504 1.114-2.157v0c0.891-1.118 1.873-1.658 2.946-1.62 1.077 0.033 2.19 0.507 3.339 1.423v0l7.279 5.802-1.983 2.488-7.102-5.66c-0.613-0.489-1.183-0.766-1.711-0.834-0.528-0.067-1.001 0.162-1.42 0.688v0c-0.242 0.304-0.409 0.677-0.5 1.118-0.087 0.436-0.083 0.902 0.011 1.399 0.098 0.491 0.286 0.978 0.566 1.462 0.28 0.484 0.664 0.921 1.153 1.311v0l5.757 4.588-1.983 2.488-15.362-12.244z" fill="#010c80" data-fill-palette-color="primary"></path><path d="M245.039 196.983l5.663 3.334c0.965 0.568 1.806 0.983 2.523 1.245 0.717 0.262 1.318 0.436 1.803 0.522v0c0.586 0.108 1.077 0.137 1.473 0.088v0l-0.395 2.657c-0.33 0.081-0.692 0.124-1.085 0.129v0c-0.342-0.003-0.729-0.047-1.16-0.132-0.44-0.083-0.916-0.256-1.426-0.519v0c0.799 0.837 1.265 1.701 1.399 2.59 0.134 0.889-0.1 1.845-0.701 2.866v0c-0.445 0.755-0.968 1.326-1.571 1.713-0.608 0.384-1.279 0.608-2.012 0.673-0.74 0.062-1.53-0.037-2.372-0.295-0.842-0.258-1.711-0.652-2.608-1.18v0c-0.908-0.535-1.669-1.17-2.283-1.906-0.614-0.736-1.053-1.522-1.318-2.359-0.259-0.833-0.343-1.696-0.252-2.59 0.097-0.891 0.395-1.762 0.896-2.614v0c0.281-0.477 0.612-0.955 0.993-1.434 0.376-0.482 0.735-0.924 1.079-1.326 0.344-0.402 0.644-0.737 0.902-1.005 0.258-0.269 0.408-0.421 0.452-0.457zM251.474 208.179c0.237-0.403 0.318-0.852 0.243-1.347-0.075-0.495-0.258-0.997-0.548-1.504-0.296-0.51-0.687-1.001-1.175-1.472-0.487-0.47-1.026-0.879-1.617-1.227v0l-3.457-2.035c-0.148 0.135-0.347 0.342-0.597 0.624-0.25 0.281-0.451 0.552-0.605 0.813v0c-0.358 0.607-0.55 1.167-0.575 1.679-0.021 0.515 0.083 1.001 0.312 1.457 0.225 0.461 0.567 0.888 1.024 1.279 0.454 0.397 0.985 0.775 1.592 1.133v0c0.562 0.331 1.107 0.632 1.635 0.904 0.531 0.267 1.038 0.451 1.521 0.552 0.478 0.098 0.908 0.087 1.291-0.031 0.383-0.118 0.702-0.393 0.956-0.825z" fill="#010c80" data-fill-palette-color="primary"></path><path d="M260.485 195.743c-0.411 0.891-0.991 1.451-1.741 1.678-0.744 0.23-1.538 0.151-2.382-0.238v0l-9.854-4.54 1.331-2.89 9.594 4.42c0.389 0.179 0.678 0.244 0.869 0.194 0.187-0.059 0.335-0.208 0.445-0.448v0c0.03-0.066 0.063-0.138 0.099-0.215 0.033-0.072 0.059-0.143 0.078-0.215v0c0.033-0.072 0.06-0.154 0.08-0.246v0l1.963 0.535c0.011 0.15 0 0.33-0.032 0.54v0c-0.021 0.172-0.067 0.382-0.139 0.632-0.075 0.241-0.178 0.505-0.311 0.793zM241.576 188.564c0.251-0.544 0.604-0.886 1.06-1.024 0.449-0.141 0.928-0.094 1.437 0.14v0c0.509 0.234 0.861 0.578 1.058 1.032 0.206 0.45 0.177 0.963-0.088 1.537v0c-0.248 0.538-0.606 0.881-1.072 1.029-0.464 0.142-0.933 0.103-1.405-0.115v0c-0.527-0.243-0.89-0.588-1.09-1.035-0.203-0.456-0.17-0.978 0.1-1.564z" fill="#010c80" data-fill-palette-color="primary"></path><path d="M266.626 178.53l-1.022 2.972-8.513-2.928c-0.735-0.253-1.373-0.322-1.913-0.209-0.539 0.107-0.916 0.476-1.133 1.105v0c-0.139 0.405-0.175 0.832-0.105 1.28 0.075 0.451 0.254 0.892 0.537 1.324 0.283 0.432 0.671 0.833 1.163 1.205 0.484 0.375 1.068 0.681 1.754 0.916v0l6.513 2.241-1.032 2.999-6.644-2.285c-1.053-0.362-1.959-0.594-2.718-0.695-0.757-0.107-1.385-0.156-1.883-0.146v0c-0.577 0.017-1.06 0.085-1.449 0.202v0l-0.139-2.692c0.255-0.114 0.553-0.21 0.893-0.289v0c0.296-0.051 0.647-0.088 1.051-0.108 0.408-0.013 0.859 0.013 1.352 0.078v0c-0.903-0.819-1.436-1.738-1.601-2.756-0.171-1.02-0.093-2.007 0.234-2.96v0c0.465-1.352 1.209-2.189 2.233-2.513 1.024-0.324 2.23-0.246 3.62 0.232v0z" fill="#010c80" data-fill-palette-color="primary"></path><path d="M5.219 141.877c0-5.891 4.776-10.667 10.668-10.668 5.891 0 10.667 4.776 10.667 10.668 0 5.891-4.776 10.667-10.667 10.667-5.891 0-10.667-4.776-10.668-10.667z" fill="#010c80" data-fill-palette-color="primary"></path><path d="M253.988 141.877c0-5.891 4.776-10.667 10.667-10.668 5.891 0 10.667 4.776 10.667 10.668 0 5.891-4.776 10.667-10.667 10.667-5.891 0-10.667-4.776-10.667-10.667z" fill="#010c80" data-fill-palette-color="primary"></path></g></svg></g></svg></g></svg></g><g></g></svg></g><defs></defs></svg><rect width="279.72" height="279.72" fill="none" stroke="none" visibility="hidden"></rect></g></svg></g></svg>